# xmcd CD database file
#
# Track frame offsets:
#	150
#	66625
#	121067
#	214775
#	261857
#
# Disc length: 3803 seconds
#
# Revision: 1
# Processed by: cddbd v1.5.1PL0 Copyright (c) Steve Scherf et al.
# Submitted via: CDex 1.51
#
DISCID=4a0ed905
DTITLE=Takeo Moriyama - Live at LOVELY
DYEAR=1900
DGENRE=Jazz
TTITLE0=Sunrise
TTITLE1=Watarase
TTITLE2=Exchange
TTITLE3=Hush-a-bye
TTITLE4=Good bye
EXTD=
EXTT0=
EXTT1=
EXTT2=
EXTT3=
EXTT4=
PLAYORDER=
